<svg width="178" height="39" viewBox="0 0 178 39" fill="none" xmlns="http://www.w3.org/2000/svg">
<path d="M59.5242 22.0026V24.9963C59.5242 26.8204 59.0735 28.2261 58.1722 29.2132C57.2923 30.179 55.9832 30.6618 54.245 30.6618C52.5067 30.6618 51.1869 30.179 50.2855 29.2132C49.4057 28.2261 48.9657 26.8204 48.9657 24.9963V13.279C48.9657 11.4548 49.4057 10.0599 50.2855 9.0942C51.1869 8.10703 52.5067 7.61344 54.245 7.61344C55.9832 7.61344 57.2923 8.10703 58.1722 9.0942C59.0735 10.0599 59.5242 11.4548 59.5242 13.279V15.4679H56.1764V13.0536C56.1764 12.2381 56.0047 11.6694 55.6613 11.3475C55.3394 11.0042 54.8995 10.8325 54.3415 10.8325C53.7836 10.8325 53.3329 11.0042 52.9895 11.3475C52.6676 11.6694 52.5067 12.2381 52.5067 13.0536V25.2216C52.5067 26.0371 52.6676 26.6058 52.9895 26.9277C53.3329 27.2496 53.7836 27.4106 54.3415 27.4106C54.8995 27.4106 55.3394 27.2496 55.6613 26.9277C56.0047 26.6058 56.1764 26.0371 56.1764 25.2216V22.0026H59.5242ZM69.3003 23.8696L71.7146 7.87096H76.6397V30.4043H73.2919V14.2447L70.8454 30.4043H67.4976L64.858 14.47V30.4043H61.7677V7.87096H66.6929L69.3003 23.8696ZM79.0538 17.5281H85.4918V20.7472H79.0538V17.5281ZM86.9253 7.87096H97.8701V11.09H94.1682V30.4043H90.6272V11.09H86.9253V7.87096ZM103.032 17.3672H107.893V20.5862H103.032V27.1852H109.148V30.4043H99.4909V7.87096H109.148V11.09H103.032V17.3672ZM123.062 7.87096L119.36 18.8157L123.319 30.4043H119.585L116.688 21.4875L113.759 30.4043H110.443L114.403 18.8157L110.701 7.87096H114.37L117.042 16.1761L119.778 7.87096H123.062ZM128.621 30.4043H125.08V7.87096H128.621V17.5281H132.645V7.87096H136.25V30.4043H132.645V20.7472H128.621V30.4043ZM142.455 30.4043H138.817V7.87096H141.972V21.3588L145.61 7.87096H150.052V30.4043H146.865V14.0837L142.455 30.4043ZM157.253 21.4232L156.159 23.4833V30.4043H152.618V7.87096H156.159V17.6891L160.859 7.87096H164.335L159.41 17.9144L164.335 30.4043H160.698L157.253 21.4232ZM177.374 30.4043H173.801L173.19 26.3161H168.844L168.232 30.4043H164.981L168.586 7.87096H173.769L177.374 30.4043ZM169.294 23.258H172.707L171.001 11.8626L169.294 23.258Z" fill="#fff"/>
<path d="M6.45938 32.1348C5.10521 32.1348 3.96067 31.6608 3.02575 30.7129C2.09084 29.765 1.62392 28.6139 1.625 27.2598V14.2598H13V6.13477H21.125L26 11.0098L25.9594 17.5098H27.5844V14.2598L31.6875 10.1973L38.9594 24.0098H27.5844V20.7598H25.9594V23.6035C26.501 24.0639 26.9143 24.6121 27.1993 25.248C27.4842 25.8839 27.6261 26.5551 27.625 27.2614C27.625 28.6156 27.151 29.7666 26.2031 30.7145C25.2552 31.6624 24.1042 32.1358 22.75 32.1348C21.7208 32.1348 20.7865 31.8369 19.9469 31.241C19.1073 30.6452 18.4979 29.8598 18.1187 28.8848H11.0906C10.7115 29.8598 10.1021 30.6452 9.2625 31.241C8.42292 31.8369 7.48854 32.1348 6.45938 32.1348ZM6.45938 28.8848C6.91979 28.8848 7.3125 28.7293 7.6375 28.4184C7.9625 28.1075 8.125 27.7213 8.125 27.2598C8.125 26.7993 7.969 26.4137 7.657 26.1028C7.345 25.7918 6.95933 25.6358 6.5 25.6348C6.03959 25.6348 5.65338 25.7908 5.34138 26.1028C5.02938 26.4148 4.87392 26.7999 4.875 27.2581C4.875 27.7186 5.02396 28.1048 5.32188 28.4168C5.61979 28.7288 5.99896 28.8858 6.45938 28.8848ZM22.75 28.8848C23.2104 28.8848 23.5966 28.7293 23.9086 28.4184C24.2206 28.1075 24.3761 27.7213 24.375 27.2598C24.375 26.7993 24.219 26.4137 23.907 26.1028C23.595 25.7918 23.2093 25.6358 22.75 25.6348C22.2896 25.6348 21.9034 25.7908 21.5914 26.1028C21.2794 26.4148 21.1239 26.8004 21.125 27.2598C21.125 27.7202 21.281 28.1064 21.593 28.4184C21.905 28.7304 22.2907 28.8858 22.75 28.8848ZM33.5969 20.7598L30.875 15.6004V20.7598H33.5969ZM16.25 17.5098H22.75V12.3504L19.7437 9.38477H16.25V17.5098Z" fill="#fff"/>
</svg>
